<svg width="80" height="80" viewBox="0 0 80 80" fill="none" xmlns="http://www.w3.org/2000/svg">
<circle cx="40" cy="40" r="40" fill="white"/>
<circle cx="40" cy="40" r="30" fill="#F0F5FB"/>
<path fill-rule="evenodd" clip-rule="evenodd" d="M22 31.8764C22 29.5922 23.8667 27.7144 26.1368 27.7144H43.8366C46.107 27.7144 47.9734 29.5925 47.9734 31.8764V48.1237C47.9734 50.4079 46.1067 52.2858 43.8366 52.2858H26.1368C23.8667 52.2858 22 50.4077 22 48.1237V31.8764ZM27.651 33.1118C27.4271 32.8865 27.1236 32.7593 26.807 32.7582L26.8071 32.7582C26.4889 32.7569 26.1832 32.883 25.9572 33.1086C25.7314 33.3339 25.6039 33.6406 25.6025 33.9608V39.995C25.6012 40.317 25.7279 40.6259 25.9539 40.8536C26.18 41.0811 26.4872 41.2085 26.8071 41.2072C27.1255 41.2058 27.4301 41.0776 27.6543 40.8501C27.8785 40.6229 28.0038 40.3154 28.0025 39.995V33.9607C28.0011 33.6421 27.875 33.3371 27.651 33.1118ZM54.3249 31.7601C54.5788 31.6235 54.8647 31.5483 55.1475 31.5267L55.1475 31.5269C55.4304 31.5054 55.7092 31.5361 55.9538 31.6164C56.4426 31.7767 56.8115 32.0683 57.0975 32.3923C57.6697 33.0399 58 33.833 58 34.7361L57.9997 45.262C57.9997 46.1438 57.6756 46.9377 57.1067 47.5705C56.5377 48.2033 55.4799 48.6919 54.4653 48.3016L50.3732 46.7289V33.8918L54.3249 31.7601Z" fill="white"/>
<path fill-rule="evenodd" clip-rule="evenodd" d="M22 31.8764C22 29.5922 23.8667 27.7144 26.1368 27.7144H43.8366C46.107 27.7144 47.9734 29.5925 47.9734 31.8764V48.1237C47.9734 50.4079 46.1067 52.2858 43.8366 52.2858H26.1368C23.8667 52.2858 22 50.4077 22 48.1237V31.8764ZM27.651 33.1118C27.4271 32.8865 27.1236 32.7593 26.807 32.7582L26.8071 32.7582C26.4889 32.7569 26.1832 32.883 25.9572 33.1086C25.7314 33.3339 25.6039 33.6406 25.6025 33.9608V39.995C25.6012 40.317 25.7279 40.6259 25.9539 40.8536C26.18 41.0811 26.4872 41.2085 26.8071 41.2072C27.1255 41.2058 27.4301 41.0776 27.6543 40.8501C27.8785 40.6229 28.0038 40.3154 28.0025 39.995V33.9607C28.0011 33.6421 27.875 33.3371 27.651 33.1118ZM54.3249 31.7601C54.5788 31.6235 54.8647 31.5483 55.1475 31.5267L55.1475 31.5269C55.4304 31.5054 55.7092 31.5361 55.9538 31.6164C56.4426 31.7767 56.8115 32.0683 57.0975 32.3923C57.6697 33.0399 58 33.833 58 34.7361L57.9997 45.262C57.9997 46.1438 57.6756 46.9377 57.1067 47.5705C56.5377 48.2033 55.4799 48.6919 54.4653 48.3016L50.3732 46.7289V33.8918L54.3249 31.7601Z" fill="url(#paint0_linear_42_1940)"/>
<defs>
<linearGradient id="paint0_linear_42_1940" x1="21.0538" y1="61.0254" x2="54.6895" y2="46.4866" gradientUnits="userSpaceOnUse">
<stop stop-color="#0D748B"/>
<stop offset="1" stop-color="#1A0B73"/>
</linearGradient>
</defs>
</svg>
