<svg width="80" height="80" viewBox="0 0 80 80" fill="none" xmlns="http://www.w3.org/2000/svg">
<circle cx="40" cy="40" r="40" fill="white"/>
<circle cx="40" cy="40" r="30" fill="#F0F5FB"/>
<path fill-rule="evenodd" clip-rule="evenodd" d="M56.3944 23.0441L57.35 24.016L57.3499 24.0161C58.6796 25.3685 57.7655 28.4955 56.4361 29.848L49.9131 35.9756L51.9074 50.3017C51.9906 50.8933 51.6999 51.7806 51.2843 52.2033L50.0378 53.4712C49.5807 53.8936 49.0408 53.8093 48.7498 53.2598L43.4731 42.5681L34.374 50.0057L35.5374 54.908C35.5788 55.4996 35.2467 56.3869 34.8311 56.8096L33.5845 58.0774C33.169 58.5423 32.5459 58.4577 32.2134 57.9507L30.3021 51.9498C29.9696 51.4427 29.2633 50.7244 28.7648 50.3862L22.4079 48.0198C21.9094 47.6817 21.8677 47.0479 22.2833 46.6252L23.5298 45.3573C23.9451 44.9349 24.7763 44.5968 25.3994 44.6389L30.4684 45.8643L37.6979 36.6939L26.9784 31.2001C26.4381 30.9044 26.355 30.3128 26.7706 29.8901L28.0171 28.6222C28.4323 28.1998 29.2636 27.9039 29.8867 27.9885L44.6779 30.0593L50.6607 23.9738C51.9904 22.6213 55.0648 21.6916 56.3944 23.0441ZM55.062 28.2928C55.2166 28.6465 55.2905 28.8156 55.4389 28.6647L55.4389 28.6648C56.353 27.735 56.3944 26.7631 55.5635 25.9601L54.4001 24.7769C53.5692 23.9317 52.6137 23.9317 51.6996 24.8615C51.5537 25.0098 51.696 25.0687 52.0105 25.1988C52.4125 25.3651 53.0959 25.6478 53.8185 26.3828C54.5545 27.1314 54.8703 27.8541 55.062 28.2928ZM37.2406 28.2419L40.4814 28.7068C40.7306 28.7489 40.9384 28.6222 41.0216 28.4108V28.3686C41.1877 27.8616 41.0631 27.2276 40.6477 26.8473L40.2321 26.4246C39.6505 25.8329 38.6949 25.8329 38.0716 26.4246L37.0328 27.8613C36.8668 28.0308 36.95 28.1997 37.2406 28.2419ZM53.1123 39.2717C52.6967 38.8489 52.1151 38.7222 51.6166 38.8914H51.5752C51.4091 38.976 51.2842 39.1449 51.2842 39.3563V39.483L51.6166 41.9763V42.0184L51.6998 42.7368C51.7412 43.0328 51.9076 43.1171 52.1154 42.9482L53.528 41.8917C54.1096 41.3001 54.1096 40.3281 53.528 39.6941L53.1123 39.2717Z" fill="white"/>
<path fill-rule="evenodd" clip-rule="evenodd" d="M56.3944 23.0441L57.35 24.016L57.3499 24.0161C58.6796 25.3685 57.7655 28.4955 56.4361 29.848L49.9131 35.9756L51.9074 50.3017C51.9906 50.8933 51.6999 51.7806 51.2843 52.2033L50.0378 53.4712C49.5807 53.8936 49.0408 53.8093 48.7498 53.2598L43.4731 42.5681L34.374 50.0057L35.5374 54.908C35.5788 55.4996 35.2467 56.3869 34.8311 56.8096L33.5845 58.0774C33.169 58.5423 32.5459 58.4577 32.2134 57.9507L30.3021 51.9498C29.9696 51.4427 29.2633 50.7244 28.7648 50.3862L22.4079 48.0198C21.9094 47.6817 21.8677 47.0479 22.2833 46.6252L23.5298 45.3573C23.9451 44.9349 24.7763 44.5968 25.3994 44.6389L30.4684 45.8643L37.6979 36.6939L26.9784 31.2001C26.4381 30.9044 26.355 30.3128 26.7706 29.8901L28.0171 28.6222C28.4323 28.1998 29.2636 27.9039 29.8867 27.9885L44.6779 30.0593L50.6607 23.9738C51.9904 22.6213 55.0648 21.6916 56.3944 23.0441ZM55.062 28.2928C55.2166 28.6465 55.2905 28.8156 55.4389 28.6647L55.4389 28.6648C56.353 27.735 56.3944 26.7631 55.5635 25.9601L54.4001 24.7769C53.5692 23.9317 52.6137 23.9317 51.6996 24.8615C51.5537 25.0098 51.696 25.0687 52.0105 25.1988C52.4125 25.3651 53.0959 25.6478 53.8185 26.3828C54.5545 27.1314 54.8703 27.8541 55.062 28.2928ZM37.2406 28.2419L40.4814 28.7068C40.7306 28.7489 40.9384 28.6222 41.0216 28.4108V28.3686C41.1877 27.8616 41.0631 27.2276 40.6477 26.8473L40.2321 26.4246C39.6505 25.8329 38.6949 25.8329 38.0716 26.4246L37.0328 27.8613C36.8668 28.0308 36.95 28.1997 37.2406 28.2419ZM53.1123 39.2717C52.6967 38.8489 52.1151 38.7222 51.6166 38.8914H51.5752C51.4091 38.976 51.2842 39.1449 51.2842 39.3563V39.483L51.6166 41.9763V42.0184L51.6998 42.7368C51.7412 43.0328 51.9076 43.1171 52.1154 42.9482L53.528 41.8917C54.1096 41.3001 54.1096 40.3281 53.528 39.6941L53.1123 39.2717Z" fill="url(#paint0_linear_42_1937)"/>
<defs>
<linearGradient id="paint0_linear_42_1937" x1="21.0538" y1="71.1874" x2="57.7775" y2="60.353" gradientUnits="userSpaceOnUse">
<stop stop-color="#0D748B"/>
<stop offset="1" stop-color="#1A0B73"/>
</linearGradient>
</defs>
</svg>
