<svg width="80" height="80" viewBox="0 0 80 80" fill="none" xmlns="http://www.w3.org/2000/svg">
<circle cx="40" cy="40" r="40" fill="white"/>
<circle cx="40" cy="40" r="30" fill="#F0F5FB"/>
<path fill-rule="evenodd" clip-rule="evenodd" d="M45.1521 23.7184C45.1521 22.7709 44.3826 22 43.4366 22H37.0559C36.1099 22 35.3403 22.7708 35.3403 23.7184V27.358H45.1522L45.1521 23.7184ZM44.3975 50.1231V50.3299C44.3975 51.6463 45.4268 52.6774 46.7411 52.6774C47.3945 52.6774 47.999 52.4251 48.4432 51.9676C48.8751 51.5224 49.103 50.9311 49.085 50.3027C49.0847 50.2944 49.0847 50.2865 49.0847 50.2783V50.2781V50.1228C49.0847 48.8064 48.0553 47.7754 46.7411 47.7754C45.4268 47.7757 44.3975 48.8067 44.3975 50.1231L44.3975 50.1231ZM50.9885 57.9999H29.505C28.086 57.9999 26.9316 56.8438 26.9316 55.4224V28.9896C26.9316 27.5684 28.0859 26.4121 29.505 26.4121H33.6254V28.2173C33.6254 28.6917 34.0096 29.0765 34.4832 29.0765H46.0102C46.4839 29.0765 46.8681 28.6917 46.8681 28.2173V26.4121H50.9885C52.4074 26.4121 53.5618 27.5683 53.5618 28.9896V55.4224C53.5618 56.8437 52.4075 57.9999 50.9885 57.9999ZM50.8002 50.2669V50.1233V50.1232C50.8002 49.0394 50.3845 48.0213 49.6294 47.2563C48.866 46.4833 47.8403 46.0574 46.7411 46.0574C45.6587 46.0574 44.6423 46.4738 43.8788 47.2302C43.1071 47.9946 42.6819 49.0222 42.6819 50.1232V50.3301C42.6819 51.4142 43.0977 52.4323 43.8528 53.197C44.6162 53.97 45.6419 54.3959 46.7411 54.3959C47.8623 54.3959 48.9036 53.959 49.6735 53.1654C50.428 52.3875 50.8281 51.3586 50.8002 50.2669ZM48.2279 33.1312H32.2666C31.7927 33.1312 31.4088 33.516 31.4088 33.9904C31.4088 34.4648 31.793 34.8496 32.2666 34.8496H48.2279C48.7015 34.8496 49.0857 34.4648 49.0857 33.9904C49.0857 33.516 48.7015 33.1312 48.2279 33.1312ZM48.2279 39.3195H32.2666C31.7927 39.3195 31.4088 39.704 31.4088 40.1787C31.4088 40.6531 31.793 41.0379 32.2666 41.0379H48.2279C48.7015 41.0379 49.0857 40.6531 49.0857 40.1787C49.0857 39.7043 48.7015 39.3195 48.2279 39.3195ZM38.4448 45.5077H32.2666C31.7927 45.5077 31.4088 45.8923 31.4088 46.367C31.4088 46.8414 31.793 47.2262 32.2666 47.2262H38.4448C38.9185 47.2262 39.3026 46.8414 39.3026 46.367C39.3026 45.8925 38.9184 45.5077 38.4448 45.5077Z" fill="white"/>
<path fill-rule="evenodd" clip-rule="evenodd" d="M45.1521 23.7184C45.1521 22.7709 44.3826 22 43.4366 22H37.0559C36.1099 22 35.3403 22.7708 35.3403 23.7184V27.358H45.1522L45.1521 23.7184ZM44.3975 50.1231V50.3299C44.3975 51.6463 45.4268 52.6774 46.7411 52.6774C47.3945 52.6774 47.999 52.4251 48.4432 51.9676C48.8751 51.5224 49.103 50.9311 49.085 50.3027C49.0847 50.2944 49.0847 50.2865 49.0847 50.2783V50.2781V50.1228C49.0847 48.8064 48.0553 47.7754 46.7411 47.7754C45.4268 47.7757 44.3975 48.8067 44.3975 50.1231L44.3975 50.1231ZM50.9885 57.9999H29.505C28.086 57.9999 26.9316 56.8438 26.9316 55.4224V28.9896C26.9316 27.5684 28.0859 26.4121 29.505 26.4121H33.6254V28.2173C33.6254 28.6917 34.0096 29.0765 34.4832 29.0765H46.0102C46.4839 29.0765 46.8681 28.6917 46.8681 28.2173V26.4121H50.9885C52.4074 26.4121 53.5618 27.5683 53.5618 28.9896V55.4224C53.5618 56.8437 52.4075 57.9999 50.9885 57.9999ZM50.8002 50.2669V50.1233V50.1232C50.8002 49.0394 50.3845 48.0213 49.6294 47.2563C48.866 46.4833 47.8403 46.0574 46.7411 46.0574C45.6587 46.0574 44.6423 46.4738 43.8788 47.2302C43.1071 47.9946 42.6819 49.0222 42.6819 50.1232V50.3301C42.6819 51.4142 43.0977 52.4323 43.8528 53.197C44.6162 53.97 45.6419 54.3959 46.7411 54.3959C47.8623 54.3959 48.9036 53.959 49.6735 53.1654C50.428 52.3875 50.8281 51.3586 50.8002 50.2669ZM48.2279 33.1312H32.2666C31.7927 33.1312 31.4088 33.516 31.4088 33.9904C31.4088 34.4648 31.793 34.8496 32.2666 34.8496H48.2279C48.7015 34.8496 49.0857 34.4648 49.0857 33.9904C49.0857 33.516 48.7015 33.1312 48.2279 33.1312ZM48.2279 39.3195H32.2666C31.7927 39.3195 31.4088 39.704 31.4088 40.1787C31.4088 40.6531 31.793 41.0379 32.2666 41.0379H48.2279C48.7015 41.0379 49.0857 40.6531 49.0857 40.1787C49.0857 39.7043 48.7015 39.3195 48.2279 39.3195ZM38.4448 45.5077H32.2666C31.7927 45.5077 31.4088 45.8923 31.4088 46.367C31.4088 46.8414 31.793 47.2262 32.2666 47.2262H38.4448C38.9185 47.2262 39.3026 46.8414 39.3026 46.367C39.3026 45.8925 38.9184 45.5077 38.4448 45.5077Z" fill="url(#paint0_linear_42_1939)"/>
<defs>
<linearGradient id="paint0_linear_42_1939" x1="26.2317" y1="70.8045" x2="54.4191" y2="64.6529" gradientUnits="userSpaceOnUse">
<stop stop-color="#0D748B"/>
<stop offset="1" stop-color="#1A0B73"/>
</linearGradient>
</defs>
</svg>
