<svg width="80" height="80" viewBox="0 0 80 80" fill="none" xmlns="http://www.w3.org/2000/svg">
<circle cx="40" cy="40" r="40" fill="white"/>
<circle cx="40" cy="40" r="30" fill="#F0F5FB"/>
<path fill-rule="evenodd" clip-rule="evenodd" d="M54.6489 29.5408C50.5835 23.8468 43.8108 21.2317 37.3345 22.1961L40.7887 39.0995L57.9974 40.2892C58.0603 36.5704 56.9758 32.7999 54.6489 29.5408ZM25.3521 50.4587C31.1288 58.5486 42.3695 60.4242 50.4598 54.648C54.7337 51.5967 57.2722 47.0198 57.8657 42.1886L39.1976 40.8942L35.4663 22.5776C33.3955 23.1162 31.3867 24.0343 29.5415 25.3515C21.4512 31.1281 19.5758 42.3693 25.3521 50.4587Z" fill="white"/>
<path fill-rule="evenodd" clip-rule="evenodd" d="M54.6489 29.5408C50.5835 23.8468 43.8108 21.2317 37.3345 22.1961L40.7887 39.0995L57.9974 40.2892C58.0603 36.5704 56.9758 32.7999 54.6489 29.5408ZM25.3521 50.4587C31.1288 58.5486 42.3695 60.4242 50.4598 54.648C54.7337 51.5967 57.2722 47.0198 57.8657 42.1886L39.1976 40.8942L35.4663 22.5776C33.3955 23.1162 31.3867 24.0343 29.5415 25.3515C21.4512 31.1281 19.5758 42.3693 25.3521 50.4587Z" fill="url(#paint0_linear_42_1938)"/>
<defs>
<linearGradient id="paint0_linear_42_1938" x1="21.0538" y1="70.8045" x2="57.7775" y2="59.9702" gradientUnits="userSpaceOnUse">
<stop stop-color="#0D748B"/>
<stop offset="1" stop-color="#1A0B73"/>
</linearGradient>
</defs>
</svg>
