<svg width="80" height="80" viewBox="0 0 80 80" fill="none" xmlns="http://www.w3.org/2000/svg">
<circle cx="40" cy="40" r="40" fill="white"/>
<circle cx="40" cy="40" r="30" fill="#F0F5FB"/>
<path fill-rule="evenodd" clip-rule="evenodd" d="M51.7472 21.0475H51.2881L51.2565 21H50.7024C50.4356 21.0376 50.1712 21.0903 49.9107 21.1582C48.9855 21.4542 48.2128 22.0996 47.758 22.9564C47.3032 23.8133 47.2026 24.8138 47.4774 25.7438C47.7519 26.674 48.3804 27.4599 49.2281 27.9336C50.0761 28.4076 51.076 28.5316 52.014 28.2794C52.9523 28.0271 53.7543 27.4186 54.249 26.5839C54.7433 25.7491 54.8912 24.7545 54.6605 23.8125C54.5003 23.1173 54.139 22.4843 53.6208 21.9926C53.1028 21.5008 52.4513 21.1722 51.7472 21.0475ZM29.6449 21.0474H29.1858L29.1542 21.0317H28.6002C28.3336 21.0706 28.0694 21.1234 27.8085 21.1896C26.8832 21.4856 26.1106 22.131 25.6558 22.9879C25.201 23.8447 25.1004 24.8452 25.3752 25.7755C25.6497 26.7055 26.2781 27.4916 27.1259 27.9653C27.9738 28.439 28.9737 28.563 29.9117 28.3108C30.85 28.0585 31.6521 27.45 32.1467 26.6154C32.6411 25.7808 32.7889 24.7862 32.5582 23.844C32.4037 23.143 32.0447 22.5031 31.5262 22.0055C31.0077 21.5077 30.353 21.1743 29.6449 21.0474ZM52.9507 37.3061L51.3676 37.401L51.3673 37.4007C51.5593 38.2562 51.6495 39.1314 51.6365 40.0079C51.6365 42.1813 51.0272 44.3112 49.877 46.1569C48.7272 48.0029 47.0824 49.4905 45.1292 50.4518C45.3838 50.567 45.6275 50.7046 45.8577 50.8627C46.1368 51.0302 46.4015 51.2204 46.6492 51.4313C48.6532 50.2695 50.3163 48.6027 51.4722 46.598C52.628 44.5931 53.2362 42.3206 53.2357 40.0078C53.2351 39.0998 53.1396 38.1943 52.9508 37.3061L52.9507 37.3061ZM28.3465 40.0079C28.3441 39.0813 28.4556 38.158 28.6791 37.2587H27.096H27.0957C26.8868 38.1606 26.7752 39.0821 26.7633 40.0079C26.7606 42.3842 27.4005 44.7174 28.6154 46.7612C29.8303 48.8051 31.5755 50.4841 33.6662 51.621C33.9731 51.3526 34.3016 51.1093 34.648 50.8942L35.1546 50.594C33.122 49.6667 31.3997 48.1758 30.1924 46.2989C28.9854 44.4219 28.3445 42.2382 28.3464 40.0078L28.3465 40.0079ZM39.9995 26.8302C37.8482 26.8477 35.7337 27.3903 33.8405 28.4104C34.0938 28.5368 34.3314 28.6791 34.5847 28.837C34.869 29.0174 35.1438 29.2127 35.408 29.4215C36.8549 28.7824 38.4171 28.4438 39.9995 28.426C41.6348 28.4112 43.254 28.7453 44.7493 29.4058C44.9601 29.2381 45.1823 29.0849 45.4144 28.9474C45.7046 28.7426 46.0117 28.5627 46.3328 28.4104C44.3898 27.3567 42.2107 26.8129 39.9995 26.8302L39.9995 26.8302ZM36.8328 34.0667C36.8352 34.387 36.7293 34.6986 36.532 34.9514C36.3207 35.2076 36.0629 35.4219 35.7721 35.5833C35.1368 35.9362 34.4544 36.1969 33.7456 36.3577C32.1537 36.6646 30.5376 36.8283 28.9164 36.8474H28.7582C28.3148 36.8474 27.7448 36.8474 27.175 36.7525C26.1637 36.695 25.1583 36.5631 24.1666 36.3578C23.4346 36.207 22.73 35.9458 22.0766 35.5833C21.7785 35.4264 21.5148 35.2116 21.3009 34.9514C21.1036 34.6986 20.9977 34.387 21 34.0667C21.0072 33.3145 21.1519 32.5703 21.4275 31.8705C21.9208 30.7245 22.7627 29.7628 23.8342 29.1211C24.2062 28.8869 24.598 28.6858 25.0059 28.5207C25.2137 28.4113 25.4628 28.4113 25.6707 28.5207C26.0633 28.7676 26.4831 28.9693 26.9214 29.1211C28.2362 29.5644 29.66 29.5644 30.9748 29.1211C31.4168 28.9661 31.8414 28.7647 32.2412 28.5207C32.4494 28.4113 32.6981 28.4113 32.9063 28.5207L33.2546 28.6786C33.5337 28.8071 33.8037 28.955 34.062 29.1211C34.3201 29.2729 34.5638 29.4475 34.7903 29.6425C35.5236 30.2376 36.0998 31.0023 36.4688 31.8705C36.7226 32.5742 36.846 33.3185 36.8328 34.0667L36.8328 34.0667ZM58.999 34.1617C59.0014 34.4821 58.8955 34.7939 58.6982 35.0467C58.4842 35.3069 58.2206 35.5218 57.9224 35.6786C57.2969 36.0405 56.6183 36.3018 55.9115 36.4528C54.9053 36.6724 53.8839 36.815 52.8559 36.8794C52.5129 36.8794 52.1845 36.9086 51.8926 36.9347L51.8925 36.9347C51.6589 36.9555 51.4486 36.9742 51.2727 36.9742H51.0826C49.4499 36.948 47.8228 36.7734 46.2219 36.4528C45.5109 36.2991 44.8274 36.0381 44.1953 35.6786C43.9046 35.5173 43.6468 35.3029 43.4355 35.0467C43.2435 34.7929 43.1482 34.4794 43.1663 34.1617C43.1732 33.4098 43.3181 32.6655 43.5937 31.9655C43.971 31.0718 44.5705 30.2886 45.3354 29.6904C45.5438 29.5147 45.766 29.3563 46.0002 29.2164C46.2872 29.0428 46.5832 28.8847 46.887 28.7424L47.1562 28.616C47.3641 28.5063 47.6128 28.5063 47.821 28.616C48.2208 28.86 48.6454 29.0611 49.0877 29.2164C50.4022 29.6594 51.8263 29.6594 53.1408 29.2164C53.5781 29.0611 53.9973 28.86 54.3915 28.616C54.5997 28.5063 54.8485 28.5063 55.0566 28.616C55.4642 28.7811 55.8563 28.9819 56.2282 29.2164C57.2995 29.8581 58.1417 30.8199 58.6347 31.9655C58.8888 32.6695 59.0122 33.4138 58.999 34.1617L58.999 34.1617ZM48.1847 56.1875C48.1871 56.5078 48.0812 56.8197 47.8839 57.0724C47.6699 57.3324 47.4063 57.5472 47.1081 57.7044C46.4794 58.0594 45.8019 58.3204 45.0972 58.4785C43.496 58.7978 41.8693 58.9724 40.2367 59C38.6039 58.9737 36.9769 58.7991 35.376 58.4785C34.6671 58.3177 33.9847 58.057 33.3494 57.7044C33.0587 57.543 32.8009 57.3287 32.5893 57.0724C32.3862 56.8229 32.2795 56.5089 32.2885 56.1875C32.2943 55.4406 32.4393 54.7011 32.7159 54.0072C33.0444 53.2067 33.5538 52.493 34.2043 51.9214C34.4939 51.6737 34.8009 51.4466 35.1227 51.2421L35.7718 50.8786L36.2784 50.6414V50.6417C36.4865 50.532 36.7353 50.532 36.9435 50.6417C37.3393 50.8825 37.7583 51.0836 38.1942 51.2421C38.8537 51.4572 39.5427 51.5693 40.2367 51.5738C40.9254 51.5704 41.6093 51.4585 42.2632 51.2421C42.6989 51.0836 43.1178 50.8825 43.514 50.6417C43.7218 50.532 43.9709 50.532 44.1788 50.6417L44.4796 50.7681C44.7783 50.9104 45.069 51.0685 45.3504 51.2421C45.606 51.4032 45.8495 51.5825 46.0786 51.7791C46.8192 52.3671 47.3969 53.1339 47.7571 54.0072C48.0338 54.701 48.1787 55.4406 48.1846 56.1875H48.1847ZM40.9337 43.168H40.4746L40.5537 43.168H39.9996C39.6967 43.1852 39.3953 43.2223 39.0972 43.2784C38.1719 43.5744 37.3993 44.2198 36.9445 45.0767C36.4897 45.9338 36.3891 46.9343 36.6639 47.8643C36.9384 48.7943 37.5668 49.5804 38.4146 50.0541C39.2626 50.5279 40.2624 50.6519 41.2005 50.3996C42.1387 50.1474 42.9408 49.5388 43.4354 48.7042C43.9298 47.8696 44.0777 46.875 43.847 45.9331C43.6868 45.2376 43.3255 44.6046 42.8073 44.1128C42.2893 43.6211 41.6377 43.2925 40.9337 43.168Z" fill="white"/>
<path fill-rule="evenodd" clip-rule="evenodd" d="M51.7472 21.0475H51.2881L51.2565 21H50.7024C50.4356 21.0376 50.1712 21.0903 49.9107 21.1582C48.9855 21.4542 48.2128 22.0996 47.758 22.9564C47.3032 23.8133 47.2026 24.8138 47.4774 25.7438C47.7519 26.674 48.3804 27.4599 49.2281 27.9336C50.0761 28.4076 51.076 28.5316 52.014 28.2794C52.9523 28.0271 53.7543 27.4186 54.249 26.5839C54.7433 25.7491 54.8912 24.7545 54.6605 23.8125C54.5003 23.1173 54.139 22.4843 53.6208 21.9926C53.1028 21.5008 52.4513 21.1722 51.7472 21.0475ZM29.6449 21.0474H29.1858L29.1542 21.0317H28.6002C28.3336 21.0706 28.0694 21.1234 27.8085 21.1896C26.8832 21.4856 26.1106 22.131 25.6558 22.9879C25.201 23.8447 25.1004 24.8452 25.3752 25.7755C25.6497 26.7055 26.2781 27.4916 27.1259 27.9653C27.9738 28.439 28.9737 28.563 29.9117 28.3108C30.85 28.0585 31.6521 27.45 32.1467 26.6154C32.6411 25.7808 32.7889 24.7862 32.5582 23.844C32.4037 23.143 32.0447 22.5031 31.5262 22.0055C31.0077 21.5077 30.353 21.1743 29.6449 21.0474ZM52.9507 37.3061L51.3676 37.401L51.3673 37.4007C51.5593 38.2562 51.6495 39.1314 51.6365 40.0079C51.6365 42.1813 51.0272 44.3112 49.877 46.1569C48.7272 48.0029 47.0824 49.4905 45.1292 50.4518C45.3838 50.567 45.6275 50.7046 45.8577 50.8627C46.1368 51.0302 46.4015 51.2204 46.6492 51.4313C48.6532 50.2695 50.3163 48.6027 51.4722 46.598C52.628 44.5931 53.2362 42.3206 53.2357 40.0078C53.2351 39.0998 53.1396 38.1943 52.9508 37.3061L52.9507 37.3061ZM28.3465 40.0079C28.3441 39.0813 28.4556 38.158 28.6791 37.2587H27.096H27.0957C26.8868 38.1606 26.7752 39.0821 26.7633 40.0079C26.7606 42.3842 27.4005 44.7174 28.6154 46.7612C29.8303 48.8051 31.5755 50.4841 33.6662 51.621C33.9731 51.3526 34.3016 51.1093 34.648 50.8942L35.1546 50.594C33.122 49.6667 31.3997 48.1758 30.1924 46.2989C28.9854 44.4219 28.3445 42.2382 28.3464 40.0078L28.3465 40.0079ZM39.9995 26.8302C37.8482 26.8477 35.7337 27.3903 33.8405 28.4104C34.0938 28.5368 34.3314 28.6791 34.5847 28.837C34.869 29.0174 35.1438 29.2127 35.408 29.4215C36.8549 28.7824 38.4171 28.4438 39.9995 28.426C41.6348 28.4112 43.254 28.7453 44.7493 29.4058C44.9601 29.2381 45.1823 29.0849 45.4144 28.9474C45.7046 28.7426 46.0117 28.5627 46.3328 28.4104C44.3898 27.3567 42.2107 26.8129 39.9995 26.8302L39.9995 26.8302ZM36.8328 34.0667C36.8352 34.387 36.7293 34.6986 36.532 34.9514C36.3207 35.2076 36.0629 35.4219 35.7721 35.5833C35.1368 35.9362 34.4544 36.1969 33.7456 36.3577C32.1537 36.6646 30.5376 36.8283 28.9164 36.8474H28.7582C28.3148 36.8474 27.7448 36.8474 27.175 36.7525C26.1637 36.695 25.1583 36.5631 24.1666 36.3578C23.4346 36.207 22.73 35.9458 22.0766 35.5833C21.7785 35.4264 21.5148 35.2116 21.3009 34.9514C21.1036 34.6986 20.9977 34.387 21 34.0667C21.0072 33.3145 21.1519 32.5703 21.4275 31.8705C21.9208 30.7245 22.7627 29.7628 23.8342 29.1211C24.2062 28.8869 24.598 28.6858 25.0059 28.5207C25.2137 28.4113 25.4628 28.4113 25.6707 28.5207C26.0633 28.7676 26.4831 28.9693 26.9214 29.1211C28.2362 29.5644 29.66 29.5644 30.9748 29.1211C31.4168 28.9661 31.8414 28.7647 32.2412 28.5207C32.4494 28.4113 32.6981 28.4113 32.9063 28.5207L33.2546 28.6786C33.5337 28.8071 33.8037 28.955 34.062 29.1211C34.3201 29.2729 34.5638 29.4475 34.7903 29.6425C35.5236 30.2376 36.0998 31.0023 36.4688 31.8705C36.7226 32.5742 36.846 33.3185 36.8328 34.0667L36.8328 34.0667ZM58.999 34.1617C59.0014 34.4821 58.8955 34.7939 58.6982 35.0467C58.4842 35.3069 58.2206 35.5218 57.9224 35.6786C57.2969 36.0405 56.6183 36.3018 55.9115 36.4528C54.9053 36.6724 53.8839 36.815 52.8559 36.8794C52.5129 36.8794 52.1845 36.9086 51.8926 36.9347L51.8925 36.9347C51.6589 36.9555 51.4486 36.9742 51.2727 36.9742H51.0826C49.4499 36.948 47.8228 36.7734 46.2219 36.4528C45.5109 36.2991 44.8274 36.0381 44.1953 35.6786C43.9046 35.5173 43.6468 35.3029 43.4355 35.0467C43.2435 34.7929 43.1482 34.4794 43.1663 34.1617C43.1732 33.4098 43.3181 32.6655 43.5937 31.9655C43.971 31.0718 44.5705 30.2886 45.3354 29.6904C45.5438 29.5147 45.766 29.3563 46.0002 29.2164C46.2872 29.0428 46.5832 28.8847 46.887 28.7424L47.1562 28.616C47.3641 28.5063 47.6128 28.5063 47.821 28.616C48.2208 28.86 48.6454 29.0611 49.0877 29.2164C50.4022 29.6594 51.8263 29.6594 53.1408 29.2164C53.5781 29.0611 53.9973 28.86 54.3915 28.616C54.5997 28.5063 54.8485 28.5063 55.0566 28.616C55.4642 28.7811 55.8563 28.9819 56.2282 29.2164C57.2995 29.8581 58.1417 30.8199 58.6347 31.9655C58.8888 32.6695 59.0122 33.4138 58.999 34.1617L58.999 34.1617ZM48.1847 56.1875C48.1871 56.5078 48.0812 56.8197 47.8839 57.0724C47.6699 57.3324 47.4063 57.5472 47.1081 57.7044C46.4794 58.0594 45.8019 58.3204 45.0972 58.4785C43.496 58.7978 41.8693 58.9724 40.2367 59C38.6039 58.9737 36.9769 58.7991 35.376 58.4785C34.6671 58.3177 33.9847 58.057 33.3494 57.7044C33.0587 57.543 32.8009 57.3287 32.5893 57.0724C32.3862 56.8229 32.2795 56.5089 32.2885 56.1875C32.2943 55.4406 32.4393 54.7011 32.7159 54.0072C33.0444 53.2067 33.5538 52.493 34.2043 51.9214C34.4939 51.6737 34.8009 51.4466 35.1227 51.2421L35.7718 50.8786L36.2784 50.6414V50.6417C36.4865 50.532 36.7353 50.532 36.9435 50.6417C37.3393 50.8825 37.7583 51.0836 38.1942 51.2421C38.8537 51.4572 39.5427 51.5693 40.2367 51.5738C40.9254 51.5704 41.6093 51.4585 42.2632 51.2421C42.6989 51.0836 43.1178 50.8825 43.514 50.6417C43.7218 50.532 43.9709 50.532 44.1788 50.6417L44.4796 50.7681C44.7783 50.9104 45.069 51.0685 45.3504 51.2421C45.606 51.4032 45.8495 51.5825 46.0786 51.7791C46.8192 52.3671 47.3969 53.1339 47.7571 54.0072C48.0338 54.701 48.1787 55.4406 48.1846 56.1875H48.1847ZM40.9337 43.168H40.4746L40.5537 43.168H39.9996C39.6967 43.1852 39.3953 43.2223 39.0972 43.2784C38.1719 43.5744 37.3993 44.2198 36.9445 45.0767C36.4897 45.9338 36.3891 46.9343 36.6639 47.8643C36.9384 48.7943 37.5668 49.5804 38.4146 50.0541C39.2626 50.5279 40.2624 50.6519 41.2005 50.3996C42.1387 50.1474 42.9408 49.5388 43.4354 48.7042C43.9298 47.8696 44.0777 46.875 43.847 45.9331C43.6868 45.2376 43.3255 44.6046 42.8073 44.1128C42.2893 43.6211 41.6377 43.2925 40.9337 43.168Z" fill="url(#paint0_linear_42_1936)"/>
<defs>
<linearGradient id="paint0_linear_42_1936" x1="20.0013" y1="72.5159" x2="58.7651" y2="61.0796" gradientUnits="userSpaceOnUse">
<stop stop-color="#0D748B"/>
<stop offset="1" stop-color="#1A0B73"/>
</linearGradient>
</defs>
</svg>
