<svg width="80" height="80" viewBox="0 0 80 80" fill="none" xmlns="http://www.w3.org/2000/svg">
<circle cx="40" cy="40" r="40" fill="white"/>
<circle cx="40" cy="40" r="30" fill="#F0F5FB"/>
<path fill-rule="evenodd" clip-rule="evenodd" d="M29.5028 28.9903H29.6743C30.5026 28.9903 31.1765 28.3474 31.1765 27.5572L31.1762 23.4331C31.1759 22.6429 30.502 22 29.6737 22H29.5022C28.6739 22 28 22.6429 28 23.4331V27.5575C28.0006 28.3474 28.6744 28.9903 29.5028 28.9903ZM52.7454 27.3749V25.1455H54.4063C56.3876 25.1455 58 26.7509 58 28.7245V31.4368H22V28.7245C22 26.7512 23.6121 25.1455 25.594 25.1455H26.8306V27.3749C26.8306 27.4755 26.838 27.5741 26.8493 27.6719C26.9979 28.949 28.0891 29.9441 29.4106 29.9441H29.5787C30.9005 29.9441 31.9914 28.949 32.14 27.6719C32.1513 27.5741 32.1586 27.4755 32.1586 27.3749V25.1455L47.4179 25.1458V27.3752C47.4179 27.4758 47.4253 27.5744 47.4366 27.6722C47.5852 28.9493 48.6764 29.9444 49.9979 29.9444L50.1654 29.9441C51.4872 29.9441 52.5782 28.949 52.7267 27.6719C52.738 27.5741 52.7454 27.4755 52.7454 27.3749ZM22 33.1846H24.537H58V49.8376C58 50.7049 57.6681 51.5287 57.0663 52.1575L52.4727 56.9518C51.8347 57.6185 50.937 58.0001 50.0107 58.0001H25.594C23.6124 58.0001 22 56.4016 22 54.4361V33.1846ZM56.037 49.5399C56.166 49.4044 56.0689 49.1811 55.8808 49.1811L51.503 49.1811C50.2242 49.1811 49.1777 50.219 49.1777 51.4872V56.2072C49.1777 56.3994 49.4148 56.4931 49.5483 56.3531L50.6042 55.2445L55.3429 50.2689L56.037 49.5399ZM50.1447 28.9903H49.9732C49.145 28.9903 48.471 28.3474 48.4707 27.5575V23.4331C48.4707 22.6429 49.1447 22 49.9732 22H50.1441C50.9726 22 51.6466 22.6429 51.6469 23.4331L51.6472 27.5572C51.6472 28.3474 50.9732 28.9903 50.1447 28.9903Z" fill="white"/>
<path fill-rule="evenodd" clip-rule="evenodd" d="M29.5028 28.9903H29.6743C30.5026 28.9903 31.1765 28.3474 31.1765 27.5572L31.1762 23.4331C31.1759 22.6429 30.502 22 29.6737 22H29.5022C28.6739 22 28 22.6429 28 23.4331V27.5575C28.0006 28.3474 28.6744 28.9903 29.5028 28.9903ZM52.7454 27.3749V25.1455H54.4063C56.3876 25.1455 58 26.7509 58 28.7245V31.4368H22V28.7245C22 26.7512 23.6121 25.1455 25.594 25.1455H26.8306V27.3749C26.8306 27.4755 26.838 27.5741 26.8493 27.6719C26.9979 28.949 28.0891 29.9441 29.4106 29.9441H29.5787C30.9005 29.9441 31.9914 28.949 32.14 27.6719C32.1513 27.5741 32.1586 27.4755 32.1586 27.3749V25.1455L47.4179 25.1458V27.3752C47.4179 27.4758 47.4253 27.5744 47.4366 27.6722C47.5852 28.9493 48.6764 29.9444 49.9979 29.9444L50.1654 29.9441C51.4872 29.9441 52.5782 28.949 52.7267 27.6719C52.738 27.5741 52.7454 27.4755 52.7454 27.3749ZM22 33.1846H24.537H58V49.8376C58 50.7049 57.6681 51.5287 57.0663 52.1575L52.4727 56.9518C51.8347 57.6185 50.937 58.0001 50.0107 58.0001H25.594C23.6124 58.0001 22 56.4016 22 54.4361V33.1846ZM56.037 49.5399C56.166 49.4044 56.0689 49.1811 55.8808 49.1811L51.503 49.1811C50.2242 49.1811 49.1777 50.219 49.1777 51.4872V56.2072C49.1777 56.3994 49.4148 56.4931 49.5483 56.3531L50.6042 55.2445L55.3429 50.2689L56.037 49.5399ZM50.1447 28.9903H49.9732C49.145 28.9903 48.471 28.3474 48.4707 27.5575V23.4331C48.4707 22.6429 49.1447 22 49.9732 22H50.1441C50.9726 22 51.6466 22.6429 51.6469 23.4331L51.6472 27.5572C51.6472 28.3474 50.9732 28.9903 50.1447 28.9903Z" fill="url(#paint0_linear_42_1935)"/>
<defs>
<linearGradient id="paint0_linear_42_1935" x1="21.0538" y1="70.8047" x2="57.7775" y2="59.9704" gradientUnits="userSpaceOnUse">
<stop stop-color="#0D748B"/>
<stop offset="1" stop-color="#1A0B73"/>
</linearGradient>
</defs>
</svg>
