<svg width="60" height="60" viewBox="0 0 60 60" fill="none" xmlns="http://www.w3.org/2000/svg">
<circle cx="30" cy="30" r="30" fill="#346EA4" fill-opacity="0.2"/>
<path fill-rule="evenodd" clip-rule="evenodd" d="M30 15C38.2847 15 45 21.7158 45 30C45 38.2847 38.2842 45 30 45C21.7153 45 15 38.2842 15 30C15 21.7153 21.7158 15 30 15ZM22.5742 30.196C22.0202 29.5835 22.0681 28.6382 22.6796 28.0851C23.2921 27.5311 24.2373 27.579 24.7905 28.1905L28.5269 32.3191L36.6011 23.9789C37.1777 23.3862 38.125 23.3731 38.7177 23.9498C39.3105 24.5264 39.3236 25.4737 38.7468 26.0664L29.5645 35.5511L29.5625 35.5491C29.5409 35.5717 29.5175 35.5942 29.4939 35.615C28.8823 36.169 27.937 36.122 27.383 35.5096L22.5733 30.1957L22.5742 30.196Z" fill="url(#paint0_linear_42_371)"/>
<defs>
<linearGradient id="paint0_linear_42_371" x1="40.5" y1="15" x2="18" y2="38.5" gradientUnits="userSpaceOnUse">
<stop stop-color="#F6F8FB"/>
<stop offset="1" stop-color="#B9C6D5"/>
</linearGradient>
</defs>
</svg>
